<svg width="100" height="105" viewBox="0 0 100 105" fill="none" xmlns="http://www.w3.org/2000/svg">
<circle cx="50" cy="52" r="50" fill="black"/>
<path d="M28.16 43.89V66.5C28.16 68.3667 28.5567 69.6967 29.35 70.49C30.1433 71.2367 31.52 71.61 33.48 71.61H38.17V77H32.43C28.8833 77 26.2233 76.1833 24.45 74.55C22.6767 72.9167 21.79 70.2333 21.79 66.5V43.89H16.82V38.64H21.79V28.98H28.16V38.64H38.17V43.89H28.16ZM64.928 37.94C67.8214 37.94 70.4347 38.57 72.768 39.83C75.1014 41.0433 76.9214 42.8867 78.228 45.36C79.5814 47.8333 80.258 50.8433 80.258 54.39V77H73.958V55.3C73.958 51.4733 73.0014 48.5567 71.088 46.55C69.1747 44.4967 66.5614 43.47 63.248 43.47C59.888 43.47 57.2047 44.52 55.198 46.62C53.238 48.72 52.258 51.7767 52.258 55.79V77H45.888V25.2H52.258V44.1C53.518 42.14 55.2447 40.6233 57.438 39.55C59.678 38.4767 62.1747 37.94 64.928 37.94Z" fill="white"/>
</svg>
