<svg width="29" height="22" viewBox="0 0 29 22" fill="none" xmlns="http://www.w3.org/2000/svg">
<path d="M6.34961 5.0752C6.7662 5.0752 7.14569 5.2541 7.4873 5.6123C7.82894 5.9706 8.22486 6.53326 8.6748 7.2998C9.20814 8.1998 9.69167 8.8752 10.125 9.3252C10.5583 9.77515 11.0254 10.1163 11.5254 10.3496C11.7085 10.2165 11.8668 10.1252 12 10.0752C12.1332 10.0252 12.2914 10 12.4746 10C12.8913 10 13.2498 10.1502 13.5498 10.4502C13.8498 10.7502 14 11.1 14 11.5V22H13V11.5C13 11.3667 12.9496 11.2504 12.8496 11.1504C12.7496 11.0504 12.6333 11 12.5 11C12.3667 11 12.2504 11.0504 12.1504 11.1504C12.0504 11.2504 12 11.3667 12 11.5V12.75H11V12.2754C10.1001 11.8921 9.40038 11.4623 8.90039 10.9873C8.40044 10.5124 7.9585 9.87509 7.5752 9.0752C7.39192 9.54175 7.24601 10.1123 7.1377 10.7871C7.02936 11.4621 6.99206 12.1002 7.02539 12.7002L9 15.5V22H7V17L5.22461 14.4502L5 18L2 22L0.400391 20.7998L3 17.3252V12C3 11.4833 3.04167 10.9208 3.125 10.3125C3.20833 9.70417 3.33333 9.14167 3.5 8.625L2 9.4502V13H0V8.2998L4.40039 5.7998C4.81679 5.56663 5.17912 5.38765 5.4873 5.2627C5.79549 5.13776 6.08305 5.07526 6.34961 5.0752ZM21.3496 5C21.9663 5 22.396 5.19186 22.6377 5.5752C22.8793 5.95849 23.225 6.53341 23.6748 7.2998C24.2081 8.1998 24.6917 8.8752 25.125 9.3252C25.5583 9.77515 26.0254 10.1163 26.5254 10.3496C26.7085 10.2165 26.8668 10.1252 27 10.0752C27.1332 10.0252 27.2914 10 27.4746 10C27.8913 10 28.2498 10.1502 28.5498 10.4502C28.8498 10.7502 29 11.1 29 11.5V22H28V11.5C28 11.3667 27.9496 11.2504 27.8496 11.1504C27.7496 11.0504 27.6333 11 27.5 11C27.3667 11 27.2504 11.0504 27.1504 11.1504C27.0504 11.2504 27 11.3667 27 11.5V12.75H26V12.2754C25.3667 11.9254 24.7165 11.4704 24.0498 10.9121C23.3834 10.3539 22.8918 9.74167 22.5752 9.0752L22 12L24 17.9746V22H22V18H20L17 22L15.4004 20.7998L17.5 18H15C15 17.4167 15.1623 16.4123 15.4873 14.9873C15.8123 13.5624 16.2585 12.1083 16.8252 10.625C17.3919 9.12503 18.0629 7.81248 18.8379 6.6875C19.6127 5.56278 20.4498 5.00016 21.3496 5ZM7.5 0.5C8.05 0.5 8.52044 0.696224 8.91211 1.08789C9.30378 1.47956 9.5 1.95 9.5 2.5C9.5 3.05 9.30378 3.52044 8.91211 3.91211C8.52044 4.30378 8.05 4.5 7.5 4.5C6.95 4.5 6.47956 4.30378 6.08789 3.91211C5.69622 3.52044 5.5 3.05 5.5 2.5C5.5 1.95 5.69622 1.47956 6.08789 1.08789C6.47956 0.696224 6.95 0.5 7.5 0.5ZM21 0C21.1998 0 21.3789 0.0539803 21.5371 0.162109C21.6954 0.270408 21.8171 0.416359 21.9004 0.599609C22.0002 0.566354 22.1004 0.542031 22.2002 0.525391C22.3002 0.508738 22.4 0.5 22.5 0.5C23.05 0.5 23.5204 0.696224 23.9121 1.08789C24.3038 1.47956 24.5 1.95 24.5 2.5C24.5 3.05 24.3038 3.52044 23.9121 3.91211C23.5204 4.30378 23.05 4.5 22.5 4.5C21.95 4.5 21.4796 4.30378 21.0879 3.91211C20.6962 3.52044 20.5 3.05 20.5 2.5C20.5 2.36674 20.533 2.16683 20.5996 1.90039C20.4164 1.81706 20.2704 1.69539 20.1621 1.53711C20.054 1.37889 20 1.19981 20 1C20 0.716667 20.0954 0.478776 20.2871 0.287109C20.4788 0.0954427 20.7167 2.01605e-08 21 0Z" fill="#E3E3E3"/>
</svg>
